<svg width="159" height="41" viewBox="0 0 159 41" fill="none" xmlns="http://www.w3.org/2000/svg">
<path d="M16.8046 33.3368C16.5113 33.3368 16.2271 33.2421 15.9979 33.0615L1.34043 21.6007C1.02876 21.3525 0.845428 20.9868 0.845428 20.5851C0.845428 20.1879 1.02876 19.8178 1.34043 19.5695L15.9979 8.11324C16.2271 7.93268 16.5113 7.83789 16.8046 7.83789C17.2033 7.83789 17.5746 8.01393 17.8221 8.3299C18.0375 8.60074 18.1338 8.93928 18.0925 9.27782C18.0513 9.62088 17.8771 9.92782 17.6067 10.14L4.24626 20.5851L17.6067 31.0303C17.8771 31.2469 18.0513 31.5539 18.0925 31.8924C18.1338 32.2355 18.0375 32.574 17.8221 32.8448C17.5746 33.1563 17.2033 33.3368 16.8046 33.3368Z" fill="#05A84C"/>
<mask id="mask0_106_2" style="mask-type:luminance" maskUnits="userSpaceOnUse" x="0" y="7" width="20" height="28">
<path d="M0.267914 7.11108H19.2933V34.8444H0.267914V7.11108Z" fill="white"/>
</mask>
<g mask="url(#mask0_106_2)">
<path d="M16.8046 7.28711C16.3875 7.28711 15.9842 7.42704 15.6587 7.67982L1.00124 19.1406C0.547494 19.4927 0.29541 20.0208 0.29541 20.585C0.29541 21.1538 0.552077 21.6819 1.00124 22.034L15.6587 33.4947C15.9842 33.7475 16.3875 33.8875 16.8046 33.8875C17.3775 33.8875 17.9046 33.6302 18.2575 33.1833C18.5646 32.7996 18.7021 32.3166 18.6425 31.8291C18.5829 31.3416 18.3354 30.9038 17.9504 30.6013L5.13999 20.585L17.9504 10.5732C18.3354 10.2663 18.5829 9.83294 18.6425 9.34544C18.7021 8.85794 18.5646 8.37496 18.2575 7.98676C17.9046 7.5444 17.3729 7.28711 16.8046 7.28711ZM16.8046 8.3885C17.0246 8.3885 17.2446 8.48329 17.3867 8.66836C17.6433 8.98885 17.5883 9.45829 17.2629 9.71107L3.35249 20.585L17.2629 31.4635C17.5883 31.7163 17.6433 32.1812 17.3867 32.5017C17.2446 32.6913 17.0246 32.7861 16.8046 32.7861C16.6396 32.7861 16.4792 32.7364 16.3417 32.6281L1.68416 21.1673C1.50541 21.0274 1.39999 20.8152 1.39999 20.585C1.39999 20.3593 1.50541 20.1472 1.68416 20.0027L16.3417 8.54648C16.4792 8.43815 16.6396 8.3885 16.8046 8.3885Z" fill="#05A84C"/>
</g>
<path d="M36.1463 33.3368C35.7429 33.3368 35.3717 33.1563 35.1242 32.8448C34.6796 32.2851 34.7758 31.4726 35.3396 31.0303L48.7046 20.5851L35.3396 10.14C34.7758 9.70213 34.6796 8.88963 35.1242 8.3299C35.3717 8.01393 35.7429 7.83789 36.1463 7.83789C36.435 7.83789 36.7192 7.93268 36.9483 8.11324L51.6058 19.5695C51.9221 19.8178 52.1008 20.1879 52.1008 20.5851C52.1008 20.9868 51.9221 21.3525 51.6058 21.6007L36.9483 33.0615C36.7192 33.2421 36.435 33.3368 36.1463 33.3368Z" fill="#05A84C"/>
<mask id="mask1_106_2" style="mask-type:luminance" maskUnits="userSpaceOnUse" x="33" y="7" width="20" height="28">
<path d="M33.3733 7.11108H52.6783V34.8444H33.3733V7.11108Z" fill="white"/>
</mask>
<g mask="url(#mask1_106_2)">
<path d="M36.1462 7.28711C35.5733 7.28711 35.0416 7.5444 34.6887 7.98676C34.0562 8.78572 34.1937 9.94579 35.0004 10.5732L47.8062 20.585L35.0004 30.6013C34.1937 31.2288 34.0562 32.3888 34.6887 33.1833C35.0416 33.6302 35.5733 33.8875 36.1462 33.8875C36.5587 33.8875 36.9621 33.7475 37.2875 33.4947L51.945 22.034C52.3941 21.6819 52.6508 21.1538 52.6508 20.585C52.6508 20.0208 52.3941 19.4927 51.9496 19.1406L37.2875 7.67982C36.9666 7.42704 36.5587 7.28711 36.1462 7.28711ZM36.1462 8.3885C36.3066 8.3885 36.4671 8.43815 36.6046 8.54648L51.2621 20.0027C51.4408 20.1472 51.5462 20.3593 51.5462 20.585C51.5462 20.8152 51.4408 21.0274 51.2621 21.1673L36.6046 32.6281C36.4671 32.7364 36.3066 32.7861 36.1462 32.7861C35.9216 32.7861 35.7062 32.6913 35.5596 32.5017C35.3029 32.1812 35.3579 31.7163 35.6833 31.4635L49.5983 20.585L35.6833 9.71107C35.3579 9.45829 35.3029 8.98885 35.5596 8.66836C35.7062 8.48329 35.9262 8.3885 36.1462 8.3885Z" fill="#05A84C"/>
</g>
<mask id="mask2_106_2" style="mask-type:luminance" maskUnits="userSpaceOnUse" x="16" y="0" width="20" height="41">
<path d="M16.9467 0.371826H35.72V40.6222H16.9467V0.371826Z" fill="white"/>
</mask>
<g mask="url(#mask2_106_2)">
<path d="M19.1879 40.2521C19.0275 40.2521 18.8716 40.2205 18.7204 40.1664C18.3996 40.04 18.1429 39.7962 18.0008 39.4848C17.8587 39.1688 17.8542 38.8167 17.9779 38.4962L32.2962 1.74414C32.4887 1.25212 32.9746 0.922607 33.5017 0.922607C33.6667 0.922607 33.8225 0.954205 33.9737 1.00837C34.6383 1.26566 34.9729 2.01497 34.7162 2.67851L20.4025 39.4261C20.21 39.9226 19.7196 40.2521 19.1879 40.2521Z" fill="#05A84C"/>
</g>
<mask id="mask3_106_2" style="mask-type:luminance" maskUnits="userSpaceOnUse" x="16" y="0" width="20" height="41">
<path d="M16.9467 0.371826H35.72V40.8027H16.9467V0.371826Z" fill="white"/>
</mask>
<g mask="url(#mask3_106_2)">
<path d="M33.5016 0.371826C32.7454 0.371826 32.0487 0.845785 31.7783 1.54995L17.46 38.2975C17.2858 38.7534 17.295 39.2545 17.4966 39.7059C17.6983 40.1527 18.0604 40.5003 18.5233 40.6763C18.7341 40.7576 18.9587 40.8027 19.1879 40.8027C19.9487 40.8027 20.6408 40.3288 20.9158 39.6246L35.2296 2.87703C35.6008 1.92912 35.1241 0.86384 34.1708 0.498215C33.96 0.412451 33.7354 0.371826 33.5016 0.371826ZM33.5016 1.4687C33.5933 1.4687 33.685 1.48676 33.7721 1.52287C34.1571 1.66731 34.3496 2.09613 34.1983 2.47981L19.8846 39.2274C19.77 39.5208 19.4858 39.7013 19.1879 39.7013C19.0962 39.7013 19.0091 39.6878 18.9175 39.6517C18.5325 39.5027 18.3446 39.0739 18.4958 38.6947L32.8096 1.94717C32.9241 1.64926 33.2037 1.4687 33.5016 1.4687Z" fill="#05A84C"/>
</g>
<path d="M69.0035 20.3612L66.3177 5.96191H61.9177L59.2319 20.3838L56.4819 5.96191H52.6685L56.459 23.9814H61.4456L64.1085 9.60462L66.7669 23.9814H71.7765L75.5669 5.96191H71.7535L69.0035 20.3612Z" fill="white"/>
<path d="M89.392 18.0276C89.392 13.4731 86.8666 10.7151 82.7141 10.7151C78.6074 10.7151 75.9674 13.5137 75.9674 17.4949V17.5175C75.9674 21.5574 78.7862 24.3154 83.1403 24.3154C85.6703 24.3154 87.4532 23.539 88.7595 22.7356L87.2012 20.0047C86.257 20.6727 84.8774 21.2279 83.3007 21.2279C81.3391 21.2279 80.0512 19.9821 79.6891 18.339H89.392V18.0276ZM82.6912 13.5814C84.4282 13.5814 85.4641 14.6918 85.7345 16.1588H79.712C80.0512 14.6918 81.1328 13.5814 82.6912 13.5814Z" fill="white"/>
<path d="M96.5633 24.338C100.982 24.338 103.759 21.4491 103.759 17.5355V17.4949C103.759 13.5814 101.142 10.715 96.7191 10.715C95.8849 10.715 95.0508 10.873 94.2624 11.0491V5.96191H90.6737V23.0921C92.5208 23.9814 94.1478 24.338 96.5633 24.338ZM96.5633 21.1827C95.7291 21.1827 94.9591 21.0699 94.2624 20.8939V14.2043C94.9591 14.0508 95.7933 13.8702 96.5633 13.8702C98.9328 13.8702 100.147 15.4501 100.147 17.4949V17.5355C100.147 19.5803 98.9328 21.1827 96.5633 21.1827Z" fill="white"/>
<path d="M113.635 23.9814V9.22546H119.433V5.96191H104.271V9.22546H110.097V23.9814H113.635Z" fill="white"/>
<path d="M133.351 18.0276C133.351 13.4731 130.826 10.7151 126.674 10.7151C122.567 10.7151 119.927 13.5137 119.927 17.4949V17.5175C119.927 21.5574 122.746 24.3154 127.1 24.3154C129.63 24.3154 131.413 23.539 132.719 22.7356L131.161 20.0047C130.216 20.6727 128.837 21.2279 127.26 21.2279C125.299 21.2279 124.011 19.9821 123.649 18.339H133.351V18.0276ZM126.651 13.5814C128.388 13.5814 129.424 14.6918 129.694 16.1588H123.671C124.011 14.6918 125.092 13.5814 126.651 13.5814Z" fill="white"/>
<path d="M141.357 24.3154C142.911 24.3154 144.606 23.9363 145.821 23.2682L144.423 20.6502C143.52 21.1151 142.599 21.3814 141.536 21.3814C139.235 21.3814 137.928 19.7384 137.928 17.5356V17.4949C137.928 15.2696 139.235 13.6717 141.536 13.6717C142.599 13.6717 143.543 13.9606 144.423 14.4255L145.844 11.8029C144.606 11.1168 142.911 10.7151 141.357 10.7151C137.09 10.7151 134.317 13.5137 134.317 17.4949V17.5356C134.317 21.5394 137.113 24.3154 141.357 24.3154Z" fill="white"/>
<path d="M152.745 10.715C152.135 10.715 151.278 10.7827 150.334 10.873V5.96191H146.745V23.9814H150.334V14.0914C151.145 13.9605 152.002 13.8702 152.612 13.8702C154.28 13.8702 155.16 14.4706 155.16 16.073V23.9814H158.749V15.6487C158.749 11.8255 155.948 10.715 152.745 10.715Z" fill="white"/>
<path d="M57.7722 33.0962C59.436 33.0962 60.4718 32.356 60.4718 31.0785V31.0605C60.4718 29.9004 59.8485 29.44 58.0885 28.9028C57.158 28.6049 56.7914 28.4063 56.7914 27.9323V27.9278C56.7914 27.5306 57.1672 27.2282 57.9601 27.2282C58.6339 27.2282 59.3168 27.4223 59.821 27.7473L60.3343 26.6459C59.743 26.2712 58.8493 26.05 57.951 26.05C56.3789 26.05 55.4393 26.8174 55.4393 27.9504V27.9685C55.4393 29.0969 55.9618 29.625 57.4743 30.0719C58.7118 30.4466 59.1105 30.6316 59.1105 31.0875V31.0966C59.1105 31.6157 58.556 31.9136 57.7218 31.9136C56.9701 31.9136 56.2414 31.7105 55.7326 31.3719L55.2193 32.4688C55.8335 32.8705 56.7822 33.0962 57.7722 33.0962Z" fill="#05A84C"/>
<path d="M63.5958 33.1231C65.2 33.1231 66.3183 32.0308 66.3183 30.5412V30.5322C66.3183 29.0516 65.2 27.9683 63.5958 27.9683C61.9917 27.9683 60.8779 29.0516 60.8779 30.5322V30.5412C60.8779 32.0308 61.9963 33.1231 63.5958 33.1231ZM63.5958 31.9269C62.7846 31.9269 62.2392 31.3221 62.2392 30.5412V30.5231C62.2392 29.7512 62.7754 29.1599 63.5958 29.1599C64.4208 29.1599 64.9525 29.7512 64.9525 30.5231V30.5412C64.9525 31.3221 64.4163 31.9269 63.5958 31.9269Z" fill="#05A84C"/>
<path d="M68.155 32.9877V26.1672H66.7984V32.9877H68.155Z" fill="#05A84C"/>
<path d="M71.0224 33.1231C71.5174 33.1231 72.4844 33.0148 73.2957 32.8703V28.1624H71.9436V31.8953C71.6274 31.954 71.3203 31.9766 71.0819 31.9766C70.4403 31.9766 70.1103 31.7599 70.1103 31.146V28.1624H68.7536V31.2544C68.7536 32.7033 69.8124 33.1231 71.0224 33.1231Z" fill="#05A84C"/>
<path d="M77.6053 31.7283C77.2662 31.9044 76.9133 32.0037 76.5145 32.0037C75.6437 32.0037 75.1487 31.3808 75.1487 30.5502V30.5322C75.1487 29.6926 75.6437 29.0877 76.5145 29.0877C76.9133 29.0877 77.2708 29.196 77.6053 29.3721L78.1416 28.379C77.6741 28.1172 77.0324 27.9683 76.4458 27.9683C74.8324 27.9683 73.7828 29.029 73.7828 30.5322V30.5502C73.7828 31.945 74.6766 32.9471 76.0699 33.096L75.6253 33.6197L75.9141 33.9356C76.102 33.895 76.3174 33.886 76.3999 33.886C76.6566 33.886 76.7253 33.9808 76.7253 34.062V34.071C76.7253 34.1658 76.6566 34.2561 76.4091 34.2561C76.212 34.2561 75.7537 34.1884 75.5153 34.1072L75.7628 34.7346C75.8545 34.7797 76.0837 34.8384 76.4091 34.8384C77.0003 34.8384 77.3899 34.5585 77.3899 34.1207V34.1072C77.3899 33.6874 77.0783 33.3759 76.4778 33.3759H76.3312L76.5283 33.1141C77.092 33.096 77.7016 32.9606 78.137 32.7169L77.6053 31.7283Z" fill="#05A84C"/>
<path d="M80.2882 27.5711C80.3203 27.3363 80.3982 27.2461 80.6045 27.2461C80.994 27.2461 81.379 27.5711 81.8924 27.5711C82.6165 27.5711 82.7953 27.1016 82.832 26.3794H81.9153C81.874 26.6051 81.7961 26.7044 81.6082 26.7044C81.2003 26.7044 80.8428 26.3704 80.3203 26.3704C79.6053 26.3704 79.4082 26.8488 79.3807 27.5711H80.2882ZM81.0903 33.1231C82.6945 33.1231 83.8128 32.0308 83.8128 30.5412V30.5322C83.8128 29.0516 82.6945 27.9683 81.0903 27.9683C79.4861 27.9683 78.3724 29.0516 78.3724 30.5322V30.5412C78.3724 32.0308 79.4907 33.1231 81.0903 33.1231ZM81.0903 31.927C80.279 31.927 79.7336 31.3221 79.7336 30.5412V30.5231C79.7336 29.7513 80.2699 29.1599 81.0903 29.1599C81.9153 29.1599 82.447 29.7513 82.447 30.5231V30.5412C82.447 31.3221 81.9107 31.927 81.0903 31.927Z" fill="#05A84C"/>
<path d="M89.252 30.7353C89.252 29.011 88.2941 27.9683 86.722 27.9683C85.1682 27.9683 84.1736 29.029 84.1736 30.5322V30.5412C84.1736 32.0714 85.237 33.1141 86.887 33.1141C87.8449 33.1141 88.5186 32.8207 89.0136 32.5183L88.4224 31.4846C88.0649 31.7328 87.5424 31.945 86.9466 31.945C86.2041 31.945 85.7182 31.4756 85.5807 30.8526H89.252V30.7353ZM86.7174 29.0516C87.3728 29.0516 87.767 29.4714 87.8678 30.0266H85.5899C85.7182 29.4714 86.1261 29.0516 86.7174 29.0516Z" fill="#05A84C"/>
<path d="M91.7797 33.096C93.2372 33.096 93.9659 32.5769 93.9659 31.5342C93.9659 30.7669 93.4526 30.2974 92.3526 29.995L91.9997 29.9002C91.413 29.7332 91.1747 29.6158 91.1747 29.3721C91.1747 29.1013 91.4634 29.011 91.9584 29.011C92.3755 29.011 92.9667 29.1013 93.4022 29.3315L93.7917 28.3971C93.2922 28.1353 92.5405 27.9773 91.798 27.9773C90.5238 27.9773 89.8042 28.5235 89.8042 29.4127C89.8042 30.2117 90.2672 30.6856 91.2938 30.9519L91.7522 31.0693C92.4717 31.2634 92.6322 31.3717 92.6322 31.6335C92.6322 31.9856 92.238 32.0624 91.6605 32.0624C91.1655 32.0624 90.5651 31.954 89.9922 31.7103L89.6255 32.6763C90.3267 32.9606 91.0097 33.096 91.7797 33.096Z" fill="#05A84C"/>
<path d="M98.1663 33.1231C99.0784 33.1231 99.6926 32.9877 100.394 32.6492V26.1672H99.0463V28.0947C98.7438 28.027 98.4322 27.9683 98.1159 27.9683C96.4384 27.9683 95.4484 29.0516 95.4484 30.5322V30.5502C95.4484 32.0308 96.4934 33.1231 98.1663 33.1231ZM98.1663 31.927C97.2772 31.927 96.8097 31.3221 96.8097 30.5502V30.5322C96.8097 29.7603 97.2772 29.1599 98.1663 29.1599C98.4643 29.1599 98.7805 29.2277 99.0463 29.2863V31.8186C98.7805 31.8863 98.4918 31.927 98.1663 31.927Z" fill="#05A84C"/>
<path d="M101.675 27.5304C102.051 27.5304 102.349 27.3454 102.349 26.9436C102.349 26.5825 102.074 26.3613 101.675 26.3613C101.281 26.3613 101.002 26.5825 101.002 26.9436C101.002 27.3454 101.309 27.5304 101.675 27.5304ZM102.358 32.9877V28.1624H101.002V32.9877H102.358Z" fill="#05A84C"/>
<path d="M105.661 27.9683C103.929 27.9683 102.842 28.7988 102.842 30.329V30.3471C102.842 31.8863 103.869 32.771 105.62 32.771C105.909 32.771 106.193 32.7349 106.454 32.6853V32.8884C106.454 33.4933 106.197 33.7551 105.386 33.7551C104.937 33.7551 104.158 33.6332 103.672 33.4346L103.97 34.6714C104.277 34.8023 104.96 34.9287 105.569 34.9287C106.761 34.9287 107.815 34.4683 107.815 33.0193V28.4467C107.302 28.212 106.5 27.9683 105.661 27.9683ZM104.204 30.3561C104.204 29.5256 104.74 29.1599 105.661 29.1599C105.927 29.1599 106.193 29.196 106.454 29.2773V31.4846C106.165 31.5478 105.899 31.5749 105.67 31.5749C104.731 31.5749 104.204 31.1957 104.204 30.3651V30.3561Z" fill="#05A84C"/>
<path d="M109.086 27.5304C109.462 27.5304 109.76 27.3454 109.76 26.9436C109.76 26.5825 109.485 26.3613 109.086 26.3613C108.692 26.3613 108.413 26.5825 108.413 26.9436C108.413 27.3454 108.72 27.5304 109.086 27.5304ZM109.769 32.9877V28.1624H108.413V32.9877H109.769Z" fill="#05A84C"/>
<path d="M114.113 32.9878V31.751H113.168C112.586 31.751 112.32 31.5343 112.32 30.9972V29.3902H114.108V28.1624H112.32V26.6819H110.964V28.1624H110.102V29.3902H110.964V31.417C110.964 32.4687 111.39 32.9878 112.559 32.9878H114.113Z" fill="#05A84C"/>
<path d="M116.898 27.991C116.275 27.991 115.551 28.1264 115.18 28.2708L114.882 29.458C115.423 29.2458 116.119 29.1194 116.605 29.1194C117.357 29.1194 117.788 29.3406 117.788 29.9455V30.1215C117.384 30.0719 117.036 30.0538 116.674 30.0538C115.335 30.0538 114.492 30.5233 114.492 31.5479V31.566C114.492 32.7035 115.423 33.1233 116.921 33.1233C117.59 33.1233 118.47 33.0285 119.144 32.8885V29.9003C119.144 28.474 118.255 27.991 116.898 27.991ZM115.881 31.4847C115.881 31.0559 116.293 30.9024 116.976 30.9024C117.187 30.9024 117.513 30.9295 117.788 30.9701V32.0128C117.503 32.0535 117.205 32.0806 116.976 32.0806C116.284 32.0806 115.881 31.9135 115.881 31.4983V31.4847Z" fill="#05A84C"/>
<path d="M120.399 27.5304C120.775 27.5304 121.073 27.3454 121.073 26.9436C121.073 26.5825 120.798 26.3613 120.399 26.3613C120.005 26.3613 119.726 26.5825 119.726 26.9436C119.726 27.3454 120.033 27.5304 120.399 27.5304ZM121.082 32.9877V28.1624H119.726V32.9877H121.082Z" fill="#05A84C"/>
<path d="M123.72 33.096C125.178 33.096 125.907 32.5769 125.907 31.5342C125.907 30.7669 125.393 30.2974 124.293 29.995L123.94 29.9002C123.354 29.7332 123.115 29.6158 123.115 29.3721C123.115 29.1013 123.404 29.011 123.899 29.011C124.316 29.011 124.907 29.1013 125.343 29.3315L125.732 28.3971C125.233 28.1353 124.481 27.9773 123.739 27.9773C122.465 27.9773 121.745 28.5235 121.745 29.4127C121.745 30.2117 122.208 30.6856 123.235 30.9519L123.693 31.0693C124.412 31.2634 124.573 31.3717 124.573 31.6335C124.573 31.9856 124.179 32.0624 123.601 32.0624C123.106 32.0624 122.506 31.954 121.933 31.7103L121.566 32.6763C122.267 32.9606 122.95 33.096 123.72 33.096Z" fill="#05A84C"/>
</svg>
